<svg width="417" height="48" viewBox="0 0 417 48" xmlns="http://www.w3.org/2000/svg"><g transform="translate(2 2)" fill="none" fill-rule="evenodd"><rect stroke="#FFC80A" stroke-width="3" fill-opacity=".3" fill="#333333" fill-rule="nonzero" width="412.6" height="43.672" rx="21.836"/><path d="M92.088,15.784 L100.936,15.784 L100.936,18.12 L95.016,18.12 L95.016,20.216 L100.36,20.216 L100.36,22.536 L95.016,22.552 L95.016,24.664 L101.096,24.664 L101.096,27 L92.088,27 L92.088,15.784 Z M105.32,15.784 L108.728,15.784 L110.824,18.968 L112.936,15.784 L116.392,15.784 L112.696,21.144 L116.712,27 L113.208,27 L110.824,23.528 L108.488,27 L105.064,27 L109.048,21.288 L105.32,15.784 Z M129.352,16.816 C130.141337,17.5040034 130.536,18.4719938 130.536,19.72 C130.536,21.0426733 130.141337,22.0693297 129.352,22.8 C128.562663,23.5306703 127.453341,23.896 126.024,23.896 L124.024,23.896 L124.024,27 L121.096,27 L121.096,15.784 L126.024,15.784 C127.453341,15.784 128.562663,16.1279966 129.352,16.816 Z M127.264,21.112 C127.589335,20.8133318 127.752,20.3813362 127.752,19.816 C127.752,19.2719973 127.589335,18.8533348 127.264,18.56 C126.938665,18.2666652 126.477336,18.12 125.88,18.12 L124.024,18.12 L124.024,21.56 L125.88,21.56 C126.477336,21.56 126.938665,21.4106682 127.264,21.112 Z M135.176,15.784 L138.104,15.784 L138.104,24.504 L142.856,24.504 L142.856,27 L135.176,27 L135.176,15.784 Z M155.824,16.36 C156.746671,16.8613358 157.471998,17.549329 158,18.424 C158.528003,19.298671 158.792,20.2799946 158.792,21.368 C158.792,22.4666722 158.528003,23.4586622 158,24.344 C157.471998,25.2293378 156.746671,25.9279974 155.824,26.44 C154.901329,26.9520026 153.869339,27.208 152.728,27.208 C151.586661,27.208 150.554671,26.9546692 149.632,26.448 C148.709329,25.9413308 147.984003,25.2426711 147.456,24.352 C146.927998,23.4613289 146.664,22.4666722 146.664,21.368 C146.664,20.2799946 146.927998,19.298671 147.456,18.424 C147.984003,17.549329 148.709329,16.8613358 149.632,16.36 C150.554671,15.8586642 151.586661,15.608 152.728,15.608 C153.869339,15.608 154.901329,15.8586642 155.824,16.36 Z M151.216,18.52 C150.741331,18.8080014 150.365335,19.2053308 150.088,19.712 C149.810665,20.2186692 149.672,20.775997 149.672,21.384 C149.672,22.0026698 149.813332,22.5653308 150.096,23.072 C150.378668,23.5786692 150.754665,23.9786652 151.224,24.272 C151.693336,24.5653348 152.205331,24.712 152.76,24.712 C153.31467,24.712 153.823998,24.5653348 154.288,24.272 C154.752003,23.9786652 155.117332,23.5786692 155.384,23.072 C155.650668,22.5653308 155.784,22.0026698 155.784,21.384 C155.784,20.775997 155.650668,20.2186692 155.384,19.712 C155.117332,19.2053308 154.752003,18.8080014 154.288,18.52 C153.823998,18.2319986 153.31467,18.088 152.76,18.088 C152.205331,18.088 151.690669,18.2319986 151.216,18.52 Z M170.184,27 L168.552,23.896 L166.376,23.896 L166.376,27 L163.448,27 L163.448,15.784 L168.488,15.784 C169.970674,15.784 171.119996,16.1279966 171.936,16.816 C172.752004,17.5040034 173.16,18.4719938 173.16,19.72 C173.16,20.5626709 172.989335,21.2906636 172.648,21.904 C172.306665,22.5173364 171.81067,22.994665 171.16,23.336 L173.496,27 L170.184,27 Z M166.376,21.56 L168.504,21.56 C169.101337,21.56 169.562665,21.4106682 169.888,21.112 C170.213335,20.8133318 170.376,20.3813362 170.376,19.816 C170.376,19.2719973 170.213335,18.8533348 169.888,18.56 C169.562665,18.2666652 169.101337,18.12 168.504,18.12 L166.376,18.12 L166.376,21.56 Z M178.232,15.784 L187.08,15.784 L187.08,18.12 L181.16,18.12 L181.16,20.216 L186.504,20.216 L186.504,22.536 L181.16,22.552 L181.16,24.664 L187.24,24.664 L187.24,27 L178.232,27 L178.232,15.784 Z M205.8,18.496 C205.298665,18.2239986 204.80267,18.088 204.312,18.088 C203.746664,18.088 203.232003,18.2293319 202.768,18.512 C202.303998,18.7946681 201.938668,19.1839975 201.672,19.68 C201.405332,20.1760025 201.272,20.727997 201.272,21.336 C201.272,21.944003 201.405332,22.4959975 201.672,22.992 C201.938668,23.4880025 202.303998,23.8773319 202.768,24.16 C203.232003,24.4426681 203.746664,24.584 204.312,24.584 C204.770669,24.584 205.250665,24.4666678 205.752,24.232 C206.253336,23.9973322 206.701332,23.6773354 207.096,23.272 L208.808,25.112 C208.199997,25.7520032 207.477338,26.2613314 206.64,26.64 C205.802663,27.0186686 204.973338,27.208 204.152,27.208 C203.042662,27.208 202.040005,26.9520026 201.144,26.44 C200.247996,25.9279974 199.544003,25.2293378 199.032,24.344 C198.519998,23.4586622 198.264,22.4666722 198.264,21.368 C198.264,20.2799946 198.525331,19.298671 199.048,18.424 C199.57067,17.549329 200.287996,16.8613358 201.2,16.36 C202.112005,15.8586642 203.133328,15.608 204.264,15.608 C205.096005,15.608 205.91733,15.7813316 206.728,16.128 C207.538671,16.4746684 208.226664,16.9466637 208.792,17.544 L207.096,19.592 C206.733332,19.133331 206.301336,18.7680014 205.8,18.496 Z M213.256,15.784 L216.184,15.784 L216.184,20.36 L220.712,20.36 L220.712,15.784 L223.64,15.784 L223.64,27 L220.712,27 L220.712,22.696 L216.184,22.696 L216.184,27 L213.256,27 L213.256,15.784 Z M237.256,27 L236.488,25.016 L231.64,25.016 L230.856,27 L227.848,27 L232.664,15.784 L235.672,15.784 L240.376,27 L237.256,27 Z M232.52,22.776 L235.624,22.776 L234.088,18.776 L232.52,22.776 Z M252.248001,15.784 L254.968001,15.784 L254.968001,27 L252.408001,27 L247.320001,20.296 L247.320001,27 L244.584001,27 L244.584001,15.784 L247.160001,15.784 L252.264001,22.536 L252.248001,15.784 Z M268.024001,15.784 L270.744001,15.784 L270.744001,27 L268.184001,27 L263.096001,20.296 L263.096001,27 L260.360001,27 L260.360001,15.784 L262.936001,15.784 L268.040001,22.536 L268.024001,15.784 Z M276.136001,15.784 L284.984001,15.784 L284.984001,18.12 L279.064001,18.12 L279.064001,20.216 L284.408001,20.216 L284.408001,22.536 L279.064001,22.552 L279.064001,24.664 L285.144001,24.664 L285.144001,27 L276.136001,27 L276.136001,15.784 Z M290.136001,15.784 L293.064001,15.784 L293.064001,24.504 L297.816001,24.504 L297.816001,27 L290.136001,27 L290.136001,15.784 Z M308.160001,18.296 C307.482664,18.0719989 306.91467,17.96 306.456001,17.96 C306.093332,17.96 305.808002,18.026666 305.600001,18.16 C305.392,18.293334 305.288001,18.4879987 305.288001,18.744 C305.288001,18.9893346 305.378666,19.1946658 305.560001,19.36 C305.741335,19.5253342 305.965333,19.6586662 306.232001,19.76 C306.498669,19.8613338 306.893331,19.9919992 307.416001,20.152 C308.194671,20.3760011 308.837332,20.5999989 309.344001,20.824 C309.85067,21.0480011 310.285332,21.3919977 310.648001,21.856 C311.010669,22.3200023 311.192001,22.9253296 311.192001,23.672 C311.192001,24.4186704 310.994669,25.0559974 310.600001,25.584 C310.205332,26.1120026 309.664004,26.509332 308.976001,26.776 C308.287997,27.042668 307.522672,27.176 306.680001,27.176 C305.751996,27.176 304.826672,27.013335 303.904001,26.688 C302.981329,26.362665 302.184004,25.9173362 301.512001,25.352 L302.648001,23.064 C303.213337,23.5653358 303.882664,23.9759984 304.656001,24.296 C305.429338,24.6160016 306.114664,24.776 306.712001,24.776 C307.149336,24.776 307.493333,24.6960008 307.744001,24.536 C307.994669,24.3759992 308.120001,24.1413349 308.120001,23.832 C308.120001,23.5759987 308.026668,23.3626675 307.840001,23.192 C307.653333,23.0213325 307.418669,22.8853338 307.136001,22.784 C306.853333,22.6826662 306.456003,22.5626674 305.944001,22.424 C305.175997,22.2106656 304.541337,21.9946678 304.040001,21.776 C303.538665,21.5573322 303.109336,21.2266689 302.752001,20.784 C302.394666,20.3413311 302.216001,19.7520037 302.216001,19.016 C302.216001,18.3226632 302.399999,17.7146693 302.768001,17.192 C303.136003,16.6693307 303.658664,16.2666681 304.336001,15.984 C305.013337,15.7013319 305.799996,15.56 306.696001,15.56 C307.506671,15.56 308.306663,15.6746655 309.096001,15.904 C309.885338,16.1333345 310.578664,16.4399981 311.176001,16.824 L310.072001,19.16 C309.474664,18.8079982 308.837337,18.5200011 308.160001,18.296 Z" fill="#FFFFFF" fill-rule="nonzero"/><path d="M0 0H24.459V24H0z" transform="translate(358 10)"/><path stroke="#FFFFFF" stroke-width="2" stroke-linecap="round" stroke-linejoin="round" transform="matrix(1 0 0 -1 358 34)" d="M2.03828721 7L12.2297233 17 22.4211594 7"/><g><path d="M0 0H24V24H0z" transform="translate(33 10)"/><path d="M15,15 L22,22 L15,15 Z M9.5,17 C13.6421356,17 17,13.6421356 17,9.5 C17,5.35786438 13.6421356,2 9.5,2 C5.35786438,2 2,5.35786438 2,9.5 C2,13.6421356 5.35786438,17 9.5,17 Z" stroke="#FFFFFF" stroke-width="2" transform="translate(33 10)"/></g></g></svg>