<svg xmlns="http://www.w3.org/2000/svg" width="126" height="48" viewBox="0 0 126 48"><path fill="#4A148C" fill-rule="evenodd" d="M18.403 36.814H4.867A1.855 1.855 0 0 1 3 34.97v-2.947c0-1.018.836-1.843 1.867-1.843h13.536c.46 0 .855-.163 1.185-.488.329-.325.493-.715.493-1.17 0-.472-.164-.781-.493-.927-.33-.147-.724-.22-1.185-.22h-7.01a8.212 8.212 0 0 1-3.283-.659 8.462 8.462 0 0 1-2.666-1.792 8.44 8.44 0 0 1-1.79-2.646A8.084 8.084 0 0 1 3 19.034c0-1.155.218-2.236.654-3.244a8.292 8.292 0 0 1 1.79-2.634 8.397 8.397 0 0 1 2.666-1.768 8.347 8.347 0 0 1 3.282-.647h11.785c1.03 0 1.866.825 1.866 1.844v2.947a1.855 1.855 0 0 1-1.866 1.843H11.392c-.46 0-.855.163-1.184.488a1.588 1.588 0 0 0-.494 1.17c0 .472.165.875.494 1.208.329.333.724.5 1.184.5h7.01a9.21 9.21 0 0 1 3.26.573 8.254 8.254 0 0 1 2.665 1.598 7.556 7.556 0 0 1 1.802 2.463c.444.96.666 2.008.666 3.147a7.87 7.87 0 0 1-.666 3.231 8.658 8.658 0 0 1-1.802 2.634 8.301 8.301 0 0 1-2.666 1.78 8.292 8.292 0 0 1-3.258.647zm44.295-9.744a9.585 9.585 0 0 1-.758 3.794 9.724 9.724 0 0 1-2.074 3.101 9.858 9.858 0 0 1-3.083 2.083 9.399 9.399 0 0 1-3.781.766 9.612 9.612 0 0 1-3.462-.634 9.538 9.538 0 0 1-3.01-1.856 9.298 9.298 0 0 1-2.976 1.856 9.582 9.582 0 0 1-3.473.634c-1.344 0-2.6-.255-3.77-.766a9.892 9.892 0 0 1-3.07-2.083 9.72 9.72 0 0 1-2.075-3.1 9.592 9.592 0 0 1-.758-3.795V12.586c0-1.019.836-1.845 1.866-1.845h2.74c1.03 0 1.866.825 1.866 1.845V27.07c0 .447.083.866.249 1.257a3.252 3.252 0 0 0 1.707 1.723c.387.168.802.252 1.245.252.442 0 .861-.084 1.256-.252.395-.167.743-.399 1.043-.694a3.162 3.162 0 0 0 .949-2.286V12.586c0-1.019.836-1.845 1.866-1.845h2.716c1.03 0 1.866.825 1.866 1.845V27.07c0 .447.087.866.261 1.257.174.39.407.734.7 1.029a3.22 3.22 0 0 0 1.02.694c.386.168.801.252 1.244.252.442 0 .86-.084 1.257-.252.394-.167.738-.399 1.03-.694a3.43 3.43 0 0 0 .7-1.03c.174-.39.26-.81.26-1.256V12.586c0-1.019.837-1.845 1.867-1.845h2.716c1.03 0 1.866.825 1.866 1.845V27.07zM79.382 37.38c-4.77 0-9.46-2.645-11.984-6.884-1.261-2.1-1.892-4.356-1.892-6.767 0-4.822 2.68-9.334 7.017-11.823 2.168-1.205 4.455-1.828 6.86-1.828 4.848 0 9.5 2.645 11.984 6.884 1.222 2.14 1.853 4.395 1.853 6.767 0 4.667-2.681 9.334-6.939 11.784-2.168 1.245-4.454 1.867-6.899 1.867zm-.038-21.383c-2.885 0-5.443 1.477-6.848 3.864a7.638 7.638 0 0 0-1.054 3.912c0 2.83 1.505 5.34 3.939 6.717 1.204.689 2.533 1.033 3.963 1.033 2.885 0 5.47-1.476 6.874-3.863a7.487 7.487 0 0 0 1.054-3.887c0-2.83-1.48-5.364-3.964-6.742a8 8 0 0 0-3.964-1.034zm29.239 21.383c-4.77 0-9.462-2.645-11.985-6.884-1.261-2.1-1.892-4.356-1.892-6.767 0-4.822 2.68-9.334 7.017-11.823 2.168-1.205 4.455-1.828 6.86-1.828 4.849 0 9.5 2.645 11.984 6.884 1.222 2.14 1.853 4.395 1.853 6.767 0 4.667-2.68 9.334-6.938 11.784-2.169 1.245-4.455 1.867-6.9 1.867zm-.038-21.383c-2.885 0-5.444 1.477-6.85 3.864a7.638 7.638 0 0 0-1.053 3.912c0 2.83 1.505 5.34 3.939 6.717 1.204.689 2.534 1.033 3.964 1.033 2.884 0 5.468-1.476 6.873-3.863a7.487 7.487 0 0 0 1.054-3.887c0-2.83-1.48-5.364-3.964-6.742a8 8 0 0 0-3.963-1.034z"/></svg>