<svg xmlns="http://www.w3.org/2000/svg" width="40" height="40" viewBox="0 0 40 40"><defs><linearGradient id="a" x1="100%" x2="0%" y1="100%" y2="0%"><stop offset="0%" stop-color="#4A148C"/><stop offset="100%" stop-color="#01BC8B"/></linearGradient></defs><g fill="none"><path fill="url(#a)" d="M30.469 0C36.25 0 40 3.75 40 9.531V30.47c0 5.78-3.75 9.53-9.531 9.53H9.53C3.75 40 0 36.25 0 30.469V9.53C0 3.75 3.75 0 9.531 0H30.47h-.001z" transform="rotate(180 20 20)"/><path fill="#FFF" d="M9.585 13.37c.01-.013-2.839 5.346-2.95 6.207a6.75 6.75 0 0 0 .177 2.509c.23.807.603 1.567 1.1 2.244.499.673 1.144 1.245 1.937 1.718.766.426 1.566.688 2.378.747a5.803 5.803 0 0 0 2.376-.219 6.782 6.782 0 0 0 2.158-1.189 6.909 6.909 0 0 0 1.628-1.98l2.421-3.478c.199-.323.466-.524.837-.617.338-.089.676-.042 1.013.132.293.19.495.454.572.793a1.19 1.19 0 0 1-.132 1.012l-3.038 4.667c-.312.499-.095.896.484.88h4.49c.281.016.695-.14.925-.352-.011.018 6.736-5.91 6.736-6.735 0-.793-6.358-5.535-7.132-5.987a6.606 6.606 0 0 0-2.466-.837c-.84-.099-1.691-.04-2.51.176-.799.21-1.397.575-2.112 1.101-.675.504-1.22 1.155-1.673 1.937l-2.905 4.71c-.16.283-.368.537-.616.748-.234.144-.508.133-.837-.044a1.425 1.425 0 0 1-.616-.793c-.074-.342-.027-.7.132-1.011l3.39-5.9c.309-.508.071-.92-.529-.924h-4.445a.998.998 0 0 0-.793.484zm7.484-.089c.033.41-.069.866-.308 1.321l-3.39 5.9c-.005-.008.008-.046 0-.089.02-.047.017-.085 0-.088.006-.039-.01-.073-.044-.088-.025-.06-.056-.088-.088-.088a.853.853 0 0 0-.264-.088c-.218 0-.432.06-.617.176 0 .01.017-.005.044-.044.03-.03.07-.086.132-.176l2.907-4.755 1.364.837-1.365-.793c.464-.81.999-1.48 1.629-2.026.16-.151.319-.28.483-.395.95-.71 1.686-1.107 2.643-1.365a8.66 8.66 0 0 1 3.081-.22 8.247 8.247 0 0 1 3.082 1.058c.528.303 2.453 1.722 4.049 2.992a66.65 66.65 0 0 1 2.378 1.982c.343.352.631.643.836.88.154.19.273.349.352.529.196.287.308.593.308.968 0 .383-.098.665-.264.968-.092.168-.195.33-.308.484-.188.242-.446.541-.749.88a78.917 78.917 0 0 1-2.157 2.157c-.142.116-.267.233-.396.353-.746.702-1.544 1.432-2.333 2.157-.29.245-.549.476-.793.705-.071.05-.143.114-.22.176a.207.207 0 0 1-.044.043c-.527.468-1.313.765-1.98.749h-4.491c-1.445.016-2.355-1.091-2.201-2.333a2.53 2.53 0 0 1 .396-.969l3.038-4.71 1.32.88-1.364-.792c-.002.01-.016.047 0 .088-.028.05-.025.088 0 .088-.013.041.004.077.044.132.016.02.049.047.088.044.023.032.043.037.044.044.06.002.095 0 .132 0 .002-.01.036-.027.088-.044a.216.216 0 0 1 .088-.089l-.044.045-2.466 3.565-1.32-.923 1.365.792c.004.04-.007.058 0 .088-.41.656-.87 1.254-1.409 1.76a3.935 3.935 0 0 1-.616.573 7.7 7.7 0 0 1-2.642 1.453 7.251 7.251 0 0 1-2.993.308c-1.059-.09-2.078-.423-3.038-.969-.98-.573-1.792-1.292-2.42-2.157a8.614 8.614 0 0 1-1.366-2.773 8.638 8.638 0 0 1-.219-3.083c.093-.64.56-1.692 1.496-3.565.051-.115.101-.216.132-.308.348-.665.698-1.35 1.057-2.025.114-.231.227-.449.309-.66.056-.05.088-.112.132-.176.015-.046.016-.05 0-.044.428-.783 1.314-1.315 2.2-1.321h4.446c1.306.006 2.184.89 2.246 1.981z"/></g></svg>