<svg xmlns="http://www.w3.org/2000/svg" xmlns:xlink="http://www.w3.org/1999/xlink" width="197" height="58" viewBox="0 0 197 58"><defs><rect id="a" width="197" height="58" rx="5.429"/></defs><g fill="none" fill-rule="evenodd"><use fill="#000" xlink:href="#a"/><rect width="195.643" height="56.643" x=".679" y=".679" stroke="#A6A6A6" stroke-width="1.357" rx="5.429"/><rect width="196.321" height="57.321" x=".339" y=".339" stroke="#8F8F8F" stroke-width=".679" rx="5.429"/><path fill="#FFF" d="M75.616 44.543h3.31L71.68 24.63h-3.353l-7.248 19.912h3.2l1.85-5.285h7.651l1.837 5.285zm-5.774-16.296h.237l2.907 8.417h-6.065l2.921-8.417zm17.864 1.02c-2.059 0-3.84 1.022-4.758 2.733h-.222v-2.484h-2.88v19.898h2.991v-7.148h.237c.793 1.587 2.504 2.525 4.66 2.525 3.826 0 6.26-2.994 6.26-7.768 0-4.775-2.434-7.755-6.288-7.755zm-.848 12.861c-2.505 0-4.077-1.96-4.077-5.092 0-3.146 1.572-5.105 4.09-5.105 2.532 0 4.049 1.918 4.049 5.092 0 3.187-1.517 5.105-4.062 5.105zm16.36-12.86c-2.058 0-3.839 1.02-4.757 2.732h-.223v-2.484h-2.88v19.898h2.992v-7.148h.236c.793 1.587 2.504 2.525 4.66 2.525 3.827 0 6.261-2.994 6.261-7.768 0-4.775-2.434-7.755-6.288-7.755zm-.848 12.86c-2.504 0-4.076-1.96-4.076-5.092 0-3.146 1.572-5.105 4.09-5.105 2.532 0 4.049 1.918 4.049 5.092 0 3.187-1.517 5.105-4.063 5.105zm13.469-2.939c.222 3.56 3.213 5.837 7.665 5.837 4.758 0 7.735-2.387 7.735-6.196 0-2.994-1.697-4.65-5.815-5.602l-2.212-.538c-2.615-.607-3.673-1.421-3.673-2.843 0-1.794 1.642-2.966 4.104-2.966 2.338 0 3.951 1.145 4.244 2.98h3.032c-.18-3.353-3.158-5.713-7.234-5.713-4.382 0-7.304 2.36-7.304 5.906 0 2.926 1.656 4.664 5.287 5.506l2.588.62c2.657.622 3.825 1.533 3.825 3.05 0 1.767-1.836 3.05-4.34 3.05-2.685 0-4.55-1.2-4.814-3.091h-3.088zm17.975-13.316v3.712h-2.49v2.498h2.49v8.486c0 2.898 1.322 4.057 4.647 4.057a9.26 9.26 0 0 0 1.6-.152v-2.47c-.418.041-.654.069-1.114.069-1.488 0-2.142-.69-2.142-2.263v-7.727h3.395v-2.498h-3.395v-3.712h-2.991zm13.801 16.324c-2.601 0-4.062-1.89-4.062-5.174 0-3.257 1.46-5.161 4.062-5.161 2.588 0 4.063 1.904 4.063 5.16 0 3.27-1.475 5.175-4.063 5.175zm0 2.636c4.424 0 7.137-2.94 7.137-7.81 0-4.844-2.726-7.797-7.137-7.797-4.424 0-7.15 2.953-7.15 7.797 0 4.87 2.713 7.81 7.15 7.81zm8.502-.29h2.99V35.67c0-2.11 1.6-3.532 3.854-3.532.501 0 1.42.096 1.656.18v-2.926c-.32-.083-.89-.124-1.322-.124-1.975 0-3.645 1.076-4.076 2.552h-.223v-2.304h-2.88v15.027zM171.35 31.75c2.212 0 3.659 1.532 3.728 3.892h-7.651c.167-2.346 1.711-3.892 3.923-3.892zm3.714 8.735c-.556 1.173-1.794 1.822-3.603 1.822-2.393 0-3.937-1.67-4.034-4.306v-.165h10.698v-1.035c0-4.72-2.546-7.576-6.761-7.576-4.271 0-6.984 3.05-6.984 7.852 0 4.802 2.657 7.755 6.998 7.755 3.464 0 5.885-1.656 6.566-4.347h-2.88zM63.88 9.089v9.482h3.452c2.849 0 4.499-1.742 4.499-4.77 0-2.984-1.663-4.712-4.499-4.712h-3.451zm1.485 1.34h1.802c1.98 0 3.153 1.249 3.153 3.391 0 2.175-1.153 3.41-3.153 3.41h-1.802v-6.8zm11.687 7.025c-1.239 0-1.934-.9-1.934-2.464 0-1.551.695-2.458 1.934-2.458 1.232 0 1.935.907 1.935 2.458 0 1.557-.703 2.464-1.935 2.464zm0 1.255c2.107 0 3.399-1.4 3.399-3.72 0-2.306-1.299-3.712-3.399-3.712-2.106 0-3.405 1.406-3.405 3.713 0 2.32 1.292 3.719 3.405 3.719zm14.563-7.294H90.19l-1.285 5.46h-.112l-1.484-5.46h-1.365l-1.484 5.46h-.106l-1.292-5.46h-1.444l1.987 7.156h1.465l1.483-5.27h.113l1.49 5.27h1.478l1.98-7.156zm1.81 7.156h1.424v-4.186c0-1.117.702-1.813 1.848-1.813 1.06 0 1.577.571 1.577 1.721v4.278h1.424v-4.633c0-1.702-.907-2.66-2.517-2.66-1.087 0-1.928.479-2.279 1.274h-.106v-1.137h-1.371v7.156zm8.68 0h1.424V8.623h-1.425v9.948zm6.943-1.117c-1.238 0-1.934-.9-1.934-2.464 0-1.551.696-2.458 1.934-2.458 1.233 0 1.935.907 1.935 2.458 0 1.557-.702 2.464-1.935 2.464zm0 1.255c2.107 0 3.399-1.4 3.399-3.72 0-2.306-1.298-3.712-3.399-3.712-2.106 0-3.405 1.406-3.405 3.713 0 2.32 1.292 3.719 3.405 3.719zm7.806-1.21c-.775 0-1.338-.374-1.338-1.018 0-.63.45-.966 1.444-1.031l1.762-.112v.598c0 .887-.795 1.564-1.868 1.564zm-.365 1.19c.948 0 1.736-.407 2.167-1.124h.112v1.006h1.372v-4.889c0-1.511-1.02-2.405-2.83-2.405-1.635 0-2.801.789-2.947 2.017h1.378c.159-.506.709-.795 1.504-.795.973 0 1.477.427 1.477 1.183v.618l-1.954.111c-1.716.106-2.683.848-2.683 2.136 0 1.308 1.013 2.142 2.404 2.142zm8.654 0c.993 0 1.835-.466 2.265-1.248h.113v1.13h1.365V8.623h-1.425v3.929h-.106c-.39-.789-1.225-1.255-2.212-1.255-1.822 0-2.995 1.432-2.995 3.693 0 2.267 1.16 3.699 2.995 3.699zm.404-6.124c1.192 0 1.94.94 1.94 2.431 0 1.498-.741 2.425-1.94 2.425-1.206 0-1.928-.913-1.928-2.431 0-1.505.729-2.425 1.928-2.425zm12.907 4.889c-1.238 0-1.934-.9-1.934-2.464 0-1.551.696-2.458 1.934-2.458 1.233 0 1.935.907 1.935 2.458 0 1.557-.702 2.464-1.935 2.464zm0 1.255c2.107 0 3.399-1.4 3.399-3.72 0-2.306-1.299-3.712-3.399-3.712-2.106 0-3.405 1.406-3.405 3.713 0 2.32 1.292 3.719 3.405 3.719zm5.447-.138h1.425v-4.186c0-1.117.702-1.813 1.848-1.813 1.06 0 1.577.571 1.577 1.721v4.278h1.424v-4.633c0-1.702-.908-2.66-2.517-2.66-1.087 0-1.928.479-2.28 1.274h-.105v-1.137H143.9v7.156zm13.166-8.89v1.767h-1.186v1.19h1.186v4.04c0 1.38.63 1.932 2.213 1.932.278 0 .537-.033.762-.072v-1.176c-.199.02-.312.033-.53.033-.709 0-1.02-.329-1.02-1.078v-3.68h1.616v-1.189h-1.616V9.68h-1.425zm5.07 8.89h1.424v-4.18c0-1.083.722-1.813 1.888-1.813 1.073 0 1.61.578 1.61 1.722v4.27h1.424v-4.619c0-1.701-.927-2.667-2.55-2.667-1.087 0-1.922.48-2.273 1.281h-.112V8.623h-1.411v9.948zm11.654-6.091c1.053 0 1.742.729 1.775 1.853h-3.643c.08-1.117.815-1.853 1.868-1.853zm1.769 4.159c-.265.558-.855.867-1.716.867-1.14 0-1.875-.795-1.921-2.05v-.079h5.094v-.492c0-2.248-1.212-3.608-3.22-3.608-2.033 0-3.325 1.452-3.325 3.739s1.265 3.693 3.332 3.693c1.65 0 2.802-.789 3.127-2.07h-1.371z"/><g fill="#FFF"><path d="M43.87 29.276c-.044-4.813 3.972-7.154 4.156-7.263-2.275-3.29-5.8-3.74-7.04-3.775-2.961-.31-5.834 1.757-7.343 1.757-1.538 0-3.861-1.727-6.365-1.677-3.222.05-6.236 1.9-7.89 4.773-3.411 5.858-.867 14.467 2.402 19.203 1.635 2.32 3.546 4.908 6.046 4.817 2.447-.098 3.36-1.547 6.313-1.547 2.926 0 3.784 1.547 6.334 1.487 2.626-.038 4.279-2.328 5.857-4.67 1.89-2.654 2.648-5.275 2.678-5.41-.06-.019-5.098-1.926-5.149-7.695M39.051 15.123c1.316-1.632 2.217-3.853 1.967-6.106-1.905.083-4.287 1.306-5.658 2.903-1.214 1.406-2.298 3.712-2.018 5.88 2.14.159 4.336-1.07 5.71-2.677"/></g></g></svg>