<svg xmlns="http://www.w3.org/2000/svg" xmlns:xlink="http://www.w3.org/1999/xlink" width="197" height="58" viewBox="0 0 197 58"><defs><rect id="a" width="197" height="57.894" rx="6.633"/><linearGradient id="c" x1="50%" x2="50%" y1="0%" y2="38.913%"><stop offset="0%" stop-color="#FBDA09"/><stop offset="100%" stop-color="#FFBC00"/></linearGradient><path id="b" d="M20.44 6.124l13.107 22.927a4.178 4.178 0 0 1-3.628 6.252H3.708A4.178 4.178 0 0 1 .08 29.051L13.186 6.124a4.178 4.178 0 0 1 7.255 0z"/><linearGradient id="d" x1="0%" x2="69.306%" y1="58.476%" y2="39.083%"><stop offset="0%" stop-color="#01E2FF"/><stop offset="100%" stop-color="#01C4FF"/></linearGradient><linearGradient id="f" x1="20.281%" x2="83.82%" y1="20.102%" y2="83.621%"><stop offset="0%" stop-color="#28D781"/><stop offset="100%" stop-color="#02F076"/></linearGradient><linearGradient id="g" x1="74.488%" x2="10.108%" y1="17.43%" y2="91.184%"><stop offset="0%" stop-color="#F2414E"/><stop offset="100%" stop-color="#E02554"/></linearGradient></defs><g fill="none" fill-rule="evenodd"><use fill="#000" xlink:href="#a"/><rect width="195.673" height="56.567" x=".663" y=".663" stroke="#A6A6A6" stroke-width="1.327" rx="6.633"/><rect width="196.337" height="57.231" x=".332" y=".332" stroke="#8F8F8F" stroke-width=".663" rx="6.633"/><g fill="#FFF"><path d="M104.395 19.245c-2.634 0-4.769-2.124-4.769-4.745 0-2.62 2.135-4.745 4.77-4.745 2.633 0 4.769 2.124 4.769 4.745 0 2.62-2.136 4.745-4.77 4.745zm0-1.45a3.304 3.304 0 0 0 3.312-3.295 3.304 3.304 0 0 0-3.312-3.295 3.304 3.304 0 0 0-3.312 3.295 3.304 3.304 0 0 0 3.312 3.295zM72.07 15.027v2.9h3.842v1.055h-5.3V10.15h5.3v1.055H72.07v2.768h3.444v1.054H72.07zM81.079 11.205v7.777H79.62v-7.777H77.37V10.15h5.962v1.055h-2.252zM94.062 11.205v7.777h-1.457v-7.777h-2.253V10.15h5.962v1.055h-2.252zM87.57 10.15h1.458v8.832H87.57zM111.218 10.15h-.86v8.832h1.456v-6.893l4.24 6.893h1.458V10.15h-1.458v6.462l-3.975-6.462h-.86zM65.152 14.127h3.99l-.04 1.256h-3.95z"/><path d="M68.357 11.17c-.777-.814-1.913-1.284-3.264-1.284-2.586 0-4.681 2.084-4.681 4.653 0 2.57 2.095 4.65 4.68 4.653 2.63.024 4.822-1.819 4.384-5.018v-.047H68.31c.01.134.013.271.01.412.002 2.286-1.322 3.357-3.188 3.357-1.865 0-3.377-1.503-3.377-3.357 0-1.854 1.512-3.357 3.377-3.357.934 0 1.743.317 2.312.896l.913-.907z"/></g><g fill="#FFF"><path d="M143.08 25.968h7.51s4.325.732 4.325 5.672c0 4.94-4.324 5.672-4.324 5.672h-7.511V25.968zm1.457 2.744V34.8h5.099s2.32 0 2.32-3.044-2.32-3.044-2.32-3.044h-5.099z"/><path d="M142.418 25.968h2.65v18.455h-2.65zM156.46 25.968h2.65v18.455h-2.65zM168.93 43.103c-.729.6-1.896 1.163-3.738 1.278-4.222.262-4.224-3.571-4.224-3.83 0-.258-.209-3.384 3.15-3.88 2.378-.353 4.043.234 4.813.606v-.542c-.189-.719-.775-2.038-2.53-2.038-2.413 0-2.946 1.298-2.946 1.298l-2.207-1.298s1.235-2.533 4.94-2.533c4.608 0 5.393 3.162 5.393 4.227v8.025h-2.65v-1.313zm-.188-3.953s-5.105-1.369-5.282 1.485c-.178 2.853 4.897 1.483 5.35-.54 0-.643-.068-.945-.068-.945zM176.552 43.723l-2.471 5.84h2.65l7.168-16.94h-2.65l-3.372 7.969-3.399-8.033h-2.65l4.724 11.164zM136.486 36.873l-8.38 3.446s.541 1.906 3.06 1.919c1.973.01 3.087-1.74 3.087-1.74l2.126 1.432s-1.715 2.761-5.23 2.761c-4.317 0-6.219-3.757-6.219-6.196 0-2.351 1.51-6.331 5.952-6.331s5.604 4.709 5.604 4.709zm-3.189-.976s-1.054-1.596-2.67-1.302c-3.421.623-2.99 3.6-2.99 3.6l5.66-2.298zM120.955 25.968h2.803v18.416h-2.803zM116.47 32.564l2.591.022v11.62c0 2.969-1.776 6.103-5.959 6.103-4.182 0-5.532-3.687-5.532-3.687l2.38-.996s.725 2.272 3.276 2.272c2.905 0 3.244-2.63 3.244-3.53v-1.26s-1.005 1.565-3.502 1.565c-2.706 0-5.923-2.308-5.923-6.242 0-3.933 3.029-6.184 5.955-6.265 2.343-.066 3.47 1.547 3.47 1.547v-1.15zm-3.28 9.747c1.89 0 3.421-1.722 3.421-3.846 0-2.125-1.532-3.847-3.421-3.847-1.89 0-3.422 1.722-3.422 3.847 0 2.124 1.532 3.846 3.422 3.846zM99.574 44.686c-3.483 0-6.307-2.803-6.307-6.261s2.824-6.261 6.307-6.261c3.483 0 6.307 2.803 6.307 6.261s-2.824 6.261-6.307 6.261zm-.041-2.455c1.958 0 3.545-1.704 3.545-3.806 0-2.102-1.587-3.806-3.545-3.806s-3.545 1.704-3.545 3.806c0 2.102 1.587 3.806 3.545 3.806zM85.928 44.686c-3.483 0-6.307-2.803-6.307-6.261s2.824-6.261 6.307-6.261c3.484 0 6.308 2.803 6.308 6.261s-2.824 6.261-6.308 6.261zm-.04-2.455c1.957 0 3.544-1.704 3.544-3.806 0-2.102-1.587-3.806-3.545-3.806s-3.545 1.704-3.545 3.806c0 2.102 1.587 3.806 3.545 3.806zM69.643 34.149h8.327l-.083 2.619h-8.244z"/><path d="M76.331 27.986c-1.62-1.699-3.992-2.677-6.812-2.677-5.396 0-9.77 4.342-9.77 9.7 0 5.356 4.374 9.69 9.77 9.698 5.486.05 10.061-3.791 9.146-10.461v-.097h-2.432c.02.278.026.565.02.86.006 4.763-2.758 6.997-6.652 6.997-3.893 0-7.049-3.133-7.049-6.998s3.156-6.998 7.05-6.998c1.947 0 3.635.661 4.824 1.868l1.905-1.892z"/></g><g transform="translate(14.44 10.282)"><mask id="e" fill="#fff"><use xlink:href="#b"/></mask><use fill="url(#c)" transform="rotate(90 16.813 18.6)" xlink:href="#b"/><path fill="url(#d)" d="M0-.013l18.52 18.314L-.24 37.34z" mask="url(#e)"/><path fill="url(#f)" d="M-3.808-3.783l22.325 22.09 6.638-6.3z" mask="url(#e)"/><path fill="url(#g)" d="M18.52 18.302l10.161 10.191-30.356 10.191z" mask="url(#e)"/></g></g></svg>