<svg width="156" height="28" viewBox="0 0 156 28" xmlns="http://www.w3.org/2000/svg"><g transform="translate(3 3)" fill="none" fill-rule="evenodd"><rect stroke="#FFC400" stroke-width="2" width="150" height="23" rx="11.5"/><path d="M19.2186667,15 L18.7066667,13.6773333 L15.4746667,13.6773333 L14.952,15 L12.9466667,15 L16.1573333,7.52266667 L18.1626667,7.52266667 L21.2986667,15 L19.2186667,15 Z M16.0613333,12.184 L18.1306667,12.184 L17.1066667,9.51733333 L16.0613333,12.184 Z M27.9493335,9.19733333 C27.4977757,9.04799925 27.1191128,8.97333333 26.8133335,8.97333333 C26.5715545,8.97333333 26.3813342,9.01777733 26.2426668,9.10666667 C26.1039995,9.195556 26.0346668,9.32533248 26.0346668,9.496 C26.0346668,9.65955637 26.0951107,9.79644389 26.2160001,9.90666667 C26.3368896,10.0168894 26.4862215,10.1057774 26.6640001,10.1733333 C26.8417788,10.2408892 27.1048873,10.3279995 27.4533335,10.4346667 C27.9724472,10.5840007 28.4008873,10.7333326 28.7386668,10.8826667 C29.0764463,11.0320007 29.3662212,11.2613318 29.6080001,11.5706667 C29.8497791,11.8800015 29.9706668,12.2835531 29.9706668,12.7813333 C29.9706668,13.2791136 29.8391126,13.7039982 29.5760001,14.056 C29.3128877,14.4080018 28.9520024,14.672888 28.4933335,14.8506667 C28.0346645,15.0284453 27.5244474,15.1173333 26.9626668,15.1173333 C26.3439971,15.1173333 25.7271143,15.00889 25.1120001,14.792 C24.496886,14.57511 23.9653357,14.2782241 23.5173335,13.9013333 L24.2746668,12.376 C24.6515576,12.7102239 25.0977753,12.9839989 25.6133335,13.1973333 C26.1288916,13.4106677 26.5857759,13.5173333 26.9840001,13.5173333 C27.2755572,13.5173333 27.5048882,13.4640005 27.6720001,13.3573333 C27.8391121,13.2506661 27.9226668,13.0942233 27.9226668,12.888 C27.9226668,12.7173325 27.8604452,12.5751117 27.7360001,12.4613333 C27.6115551,12.347555 27.4551122,12.2568892 27.2666668,12.1893333 C27.0782214,12.1217774 26.8133352,12.0417782 26.4720001,11.9493333 C25.9599976,11.8071104 25.5368907,11.6631118 25.2026668,11.5173333 C24.8684429,11.3715548 24.5822236,11.1511126 24.3440001,10.856 C24.1057767,10.5608874 23.9866668,10.1680025 23.9866668,9.67733333 C23.9866668,9.2151088 24.1093323,8.80977952 24.3546668,8.46133333 C24.6000014,8.11288715 24.9484423,7.84444539 25.4000001,7.656 C25.851558,7.46755461 26.3759972,7.37333333 26.9733335,7.37333333 C27.5137806,7.37333333 28.0471086,7.44977701 28.5733335,7.60266667 C29.0995583,7.75555632 29.5617759,7.95999872 29.9600001,8.216 L29.2240001,9.77333333 C28.8257759,9.53866549 28.4008913,9.34666741 27.9493335,9.19733333 Z M40.2853336,15 L37.9493336,15 L35.986667,12.0986667 L35.0480003,13.144 L35.0480003,15 L33.0960003,15 L33.0960003,7.52266667 L35.0480003,7.52266667 L35.0480003,10.7653333 L37.8533336,7.52266667 L40.114667,7.52266667 L37.3413336,10.6053333 L40.2853336,15 Z M53.2133339,15 L52.7013339,13.6773333 L49.4693339,13.6773333 L48.9466672,15 L46.9413339,15 L50.1520006,7.52266667 L52.1573339,7.52266667 L55.2933339,15 L53.2133339,15 Z M50.0560006,12.184 L52.1253339,12.184 L51.1013339,9.51733333 L50.0560006,12.184 Z M70.5786675,15.9493333 C70.2942217,16.2053346 69.9546695,16.4079993 69.5600009,16.5573333 C69.1653322,16.7066674 68.7795583,16.7813333 68.4026675,16.7813333 C67.8977761,16.7813333 67.4355585,16.635557 67.0160009,16.344 C66.5964432,16.052443 66.2622243,15.6506692 66.0133342,15.1386667 C65.273775,15.1173332 64.6088927,14.9342239 64.0186675,14.5893333 C63.4284424,14.2444427 62.964447,13.7804474 62.6266675,13.1973333 C62.2888881,12.6142193 62.1200009,11.9635591 62.1200009,11.2453333 C62.1200009,10.5199964 62.2959991,9.86578069 62.6480009,9.28266667 C63.0000026,8.69955264 63.4835534,8.24089056 64.0986675,7.90666667 C64.7137817,7.57244277 65.4017748,7.40533333 66.1626675,7.40533333 C66.9235602,7.40533333 67.6115534,7.57244277 68.2266675,7.90666667 C68.8417817,8.24089056 69.3253324,8.69955264 69.6773342,9.28266667 C70.029336,9.86578069 70.2053342,10.5199964 70.2053342,11.2453333 C70.2053342,12.0702263 69.984892,12.8026635 69.5440009,13.4426667 C69.1031098,14.0826699 68.5128935,14.548443 67.7733342,14.84 C68.0364466,15.1457793 68.3173327,15.2986667 68.6160009,15.2986667 C68.7866684,15.2986667 68.9839998,15.2488894 69.2080009,15.1493333 C69.432002,15.0497773 69.661333,14.9146675 69.8960009,14.744 L70.5786675,15.9493333 Z M64.4080009,12.3813333 C64.5964463,12.7191128 64.8471104,12.9857768 65.1600009,13.1813333 C65.4728913,13.3768899 65.8142212,13.4746667 66.1840009,13.4746667 C66.5537805,13.4746667 66.8933327,13.3768899 67.2026675,13.1813333 C67.5120024,12.9857768 67.7555555,12.7191128 67.9333342,12.3813333 C68.1111129,12.0435539 68.2000009,11.6684465 68.2000009,11.256 C68.2000009,10.8506646 68.1111129,10.4791128 67.9333342,10.1413333 C67.7555555,9.80355387 67.5120024,9.53866763 67.2026675,9.34666667 C66.8933327,9.15466571 66.5537805,9.05866667 66.1840009,9.05866667 C65.8142212,9.05866667 65.4711136,9.15466571 65.1546675,9.34666667 C64.8382215,9.53866763 64.5875574,9.80355387 64.4026675,10.1413333 C64.2177777,10.4791128 64.1253342,10.8506646 64.1253342,11.256 C64.1253342,11.6684465 64.2195555,12.0435539 64.4080009,12.3813333 Z M75.592001,13.048 C75.8693357,13.3324459 76.2213322,13.4746667 76.648001,13.4746667 C77.0675587,13.4746667 77.4071108,13.3342236 77.6666677,13.0533333 C77.9262245,12.772443 78.056001,12.3937802 78.056001,11.9173333 L78.056001,7.52266667 L80.008001,7.52266667 L80.008001,11.9173333 C80.008001,12.5644477 79.8711135,13.1315531 79.5973344,13.6186667 C79.3235552,14.1057802 78.932448,14.4808876 78.424001,14.744 C77.915554,15.0071124 77.3200044,15.1386667 76.6373344,15.1386667 C75.9546643,15.1386667 75.3555592,15.0071124 74.840001,14.744 C74.3244429,14.4808876 73.9262246,14.1057802 73.6453344,13.6186667 C73.3644441,13.1315531 73.224001,12.5644477 73.224001,11.9173333 L73.224001,7.52266667 L75.176001,7.52266667 L75.176001,11.9173333 C75.176001,12.386669 75.3146663,12.7635541 75.592001,13.048 Z M83.4746678,7.52266667 L89.3733345,7.52266667 L89.3733345,9.08 L85.4266678,9.08 L85.4266678,10.4773333 L88.9893345,10.4773333 L88.9893345,12.024 L85.4266678,12.0346667 L85.4266678,13.4426667 L89.4800012,13.4426667 L89.4800012,15 L83.4746678,15 L83.4746678,7.52266667 Z M96.6853346,9.19733333 C96.2337768,9.04799925 95.8551139,8.97333333 95.5493346,8.97333333 C95.3075557,8.97333333 95.1173353,9.01777733 94.978668,9.10666667 C94.8400006,9.195556 94.770668,9.32533248 94.770668,9.496 C94.770668,9.65955637 94.8311118,9.79644389 94.9520013,9.90666667 C95.0728908,10.0168894 95.2222226,10.1057774 95.4000013,10.1733333 C95.57778,10.2408892 95.8408885,10.3279995 96.1893346,10.4346667 C96.7084483,10.5840007 97.1368885,10.7333326 97.474668,10.8826667 C97.8124474,11.0320007 98.1022223,11.2613318 98.3440013,11.5706667 C98.5857803,11.8800015 98.706668,12.2835531 98.706668,12.7813333 C98.706668,13.2791136 98.5751137,13.7039982 98.3120013,14.056 C98.0488889,14.4080018 97.6880036,14.672888 97.2293346,14.8506667 C96.7706657,15.0284453 96.2604486,15.1173333 95.698668,15.1173333 C95.0799982,15.1173333 94.4631155,15.00889 93.8480013,14.792 C93.2328871,14.57511 92.7013369,14.2782241 92.2533346,13.9013333 L93.010668,12.376 C93.3875587,12.7102239 93.8337765,12.9839989 94.3493346,13.1973333 C94.8648928,13.4106677 95.3217771,13.5173333 95.7200013,13.5173333 C96.0115583,13.5173333 96.2408894,13.4640005 96.4080013,13.3573333 C96.5751133,13.2506661 96.658668,13.0942233 96.658668,12.888 C96.658668,12.7173325 96.5964464,12.5751117 96.4720013,12.4613333 C96.3475562,12.347555 96.1911134,12.2568892 96.002668,12.1893333 C95.8142226,12.1217774 95.5493363,12.0417782 95.2080013,11.9493333 C94.6959987,11.8071104 94.2728919,11.6631118 93.938668,11.5173333 C93.6044441,11.3715548 93.3182247,11.1511126 93.0800013,10.856 C92.8417779,10.5608874 92.722668,10.1680025 92.722668,9.67733333 C92.722668,9.2151088 92.8453334,8.80977952 93.090668,8.46133333 C93.3360025,8.11288715 93.6844435,7.84444539 94.1360013,7.656 C94.5875591,7.46755461 95.1119983,7.37333333 95.7093346,7.37333333 C96.2497818,7.37333333 96.7831098,7.44977701 97.3093346,7.60266667 C97.8355595,7.75555632 98.2977771,7.95999872 98.6960013,8.216 L97.9600013,9.77333333 C97.5617771,9.53866549 97.1368925,9.34666741 96.6853346,9.19733333 Z M101.181335,7.52266667 L107.592001,7.52266667 L107.592001,9.13333333 L105.352001,9.13333333 L105.352001,15 L103.400001,15 L103.400001,9.13333333 L101.181335,9.13333333 L101.181335,7.52266667 Z M110.514668,7.52266667 L112.466668,7.52266667 L112.466668,15 L110.514668,15 L110.514668,7.52266667 Z M121.677335,7.90666667 C122.292449,8.24089056 122.776,8.69955264 123.128002,9.28266667 C123.480004,9.86578069 123.656002,10.5199964 123.656002,11.2453333 C123.656002,11.9777814 123.480004,12.6391082 123.128002,13.2293333 C122.776,13.8195585 122.292449,14.2853316 121.677335,14.6266667 C121.062221,14.9680017 120.374228,15.1386667 119.613335,15.1386667 C118.852442,15.1386667 118.164449,14.9697795 117.549335,14.632 C116.934221,14.2942205 116.45067,13.8284474 116.098668,13.2346667 C115.746667,12.6408859 115.570668,11.9777814 115.570668,11.2453333 C115.570668,10.5199964 115.746667,9.86578069 116.098668,9.28266667 C116.45067,8.69955264 116.934221,8.24089056 117.549335,7.90666667 C118.164449,7.57244277 118.852442,7.40533333 119.613335,7.40533333 C120.374228,7.40533333 121.062221,7.57244277 121.677335,7.90666667 Z M118.605335,9.34666667 C118.288889,9.53866763 118.038225,9.80355387 117.853335,10.1413333 C117.668445,10.4791128 117.576002,10.8506646 117.576002,11.256 C117.576002,11.6684465 117.670223,12.0435539 117.858668,12.3813333 C118.047114,12.7191128 118.297778,12.9857768 118.610668,13.1813333 C118.923559,13.3768899 119.264889,13.4746667 119.634668,13.4746667 C120.004448,13.4746667 120.344,13.3768899 120.653335,13.1813333 C120.96267,12.9857768 121.206223,12.7191128 121.384002,12.3813333 C121.56178,12.0435539 121.650668,11.6684465 121.650668,11.256 C121.650668,10.8506646 121.56178,10.4791128 121.384002,10.1413333 C121.206223,9.80355387 120.96267,9.53866763 120.653335,9.34666667 C120.344,9.15466571 120.004448,9.05866667 119.634668,9.05866667 C119.264889,9.05866667 118.921781,9.15466571 118.605335,9.34666667 Z M131.869335,7.52266667 L133.682669,7.52266667 L133.682669,15 L131.976002,15 L128.584002,10.5306667 L128.584002,15 L126.760002,15 L126.760002,7.52266667 L128.477335,7.52266667 L131.880002,12.024 L131.869335,7.52266667 Z" fill="#333333"/></g></svg>