<svg width="195" height="50" viewBox="0 0 195 50" xmlns="http://www.w3.org/2000/svg"><g transform="translate(4 3)" fill="none" fill-rule="evenodd"><rect stroke="#FFC80A" stroke-width="2.87" width="188" height="44" rx="22"/><path d="M29.039003,27.7100034 L28.3474976,25.4345279 L24.8703997,25.4345279 L24.1788944,27.7100034 L22,27.7100034 L25.3661961,18.1111583 L27.838654,18.1111583 L31.2178974,27.7100034 L29.039003,27.7100034 Z M27.8647486,23.7344599 C27.2254291,21.6725723 26.8655454,20.5065118 26.7850868,20.2362432 C26.7046283,19.9659746 26.6470034,19.7523785 26.6122105,19.5954484 C26.4686898,20.1534222 26.0577049,21.5330789 25.3792433,23.7344599 L27.8647486,23.7344599 Z M40.7202254,25.0552819 C40.7202254,25.9183977 40.4103558,26.598418 39.7906073,27.0953635 C39.1708588,27.5923089 38.3086603,27.8407779 37.2039857,27.8407779 C36.1862935,27.8407779 35.2860407,27.6489772 34.5032005,27.2653702 L34.5032005,25.3822181 C35.1468691,25.6699233 35.6915873,25.8726217 36.1373713,25.9903193 C36.5831553,26.1080169 36.9908785,26.1668648 37.360553,26.1668648 C37.8041625,26.1668648 38.1444754,26.0818623 38.381502,25.9118546 C38.6185286,25.741847 38.7370402,25.4890189 38.7370402,25.1533628 C38.7370402,24.9659184 38.6848516,24.7991827 38.5804729,24.6531505 C38.4760942,24.5071183 38.3227903,24.3665371 38.1205566,24.2314029 C37.9183229,24.0962686 37.5062506,23.8804929 36.8843276,23.5840693 C36.3015465,23.3094416 35.8644673,23.0457157 35.5730768,22.7928838 C35.2816863,22.540052 35.0490123,22.2458124 34.8750478,21.9101562 C34.7010833,21.5745001 34.6141023,21.1821807 34.6141023,20.7331861 C34.6141023,19.8875071 34.9000522,19.2227436 35.4719604,18.7388757 C36.0438687,18.2550078 36.834308,18.0130774 37.8433021,18.0130774 C38.3391009,18.0130774 38.8120597,18.0719254 39.2621928,18.189623 C39.712326,18.3073206 40.1831103,18.4729665 40.67456,18.6865659 L40.0221964,20.2623981 C39.5133503,20.0531579 39.09258,19.9071279 38.7598729,19.8243037 C38.4271658,19.7414794 38.0999,19.7000679 37.7780657,19.7000679 C37.3953438,19.7000679 37.1017831,19.7894296 36.8973749,19.9681556 C36.6929666,20.1468816 36.590764,20.3800937 36.590764,20.6677989 C36.590764,20.8465249 36.6320799,21.0023629 36.7147131,21.1353176 C36.7973462,21.2682723 36.9289049,21.3968659 37.109393,21.5211022 C37.2898812,21.6453386 37.7171751,21.8687427 38.3912875,22.1913213 C39.2828555,22.61852 39.8938966,23.0468021 40.2244291,23.4761804 C40.5549616,23.9055586 40.7202254,24.4319206 40.7202254,25.0552819 Z M52.792866,27.7100034 L50.4965462,27.7100034 L47.9979937,23.6821501 L47.1433974,24.2967901 L47.1433974,27.7100034 L45.1210703,27.7100034 L45.1210703,18.1503906 L47.1433974,18.1503906 L47.1433974,22.5247962 L47.939281,21.4001359 L50.5226408,18.1503906 L52.7667715,18.1503906 L49.4397172,22.3809443 L52.792866,27.7100034 Z M68.6466061,27.7100034 L67.9551007,25.4345279 L64.4780028,25.4345279 L63.7864974,27.7100034 L61.607603,27.7100034 L64.9737991,18.1111583 L67.4462571,18.1111583 L70.8255004,27.7100034 L68.6466061,27.7100034 Z M67.4723516,23.7344599 C66.8330321,21.6725723 66.4731485,20.5065118 66.3926899,20.2362432 C66.3122313,19.9659746 66.2546064,19.7523785 66.2198135,19.5954484 C66.0762928,20.1534222 65.6653079,21.5330789 64.9868464,23.7344599 L67.4723516,23.7344599 Z M89.4974511,22.9171196 C89.4974511,24.0417855 89.2984822,24.984442 88.9005384,25.7451172 C88.5025947,26.5057924 87.9187351,27.0626681 87.1489422,27.4157609 L89.445262,29.9854789 L86.8553786,29.9854789 L85.1070442,27.8407779 L84.9570006,27.8407779 C83.4956989,27.8407779 82.3736448,27.4157651 81.5908046,26.5657269 C80.8079643,25.7156887 80.4165501,24.4951393 80.4165501,22.9040421 C80.4165501,21.3129449 80.8090516,20.0978444 81.5940664,19.2587041 C82.3790811,18.4195639 83.5043971,18 84.9700479,18 C86.4356987,18 87.5566656,18.4228332 88.3329821,19.2685122 C89.1092987,20.1141913 89.4974511,21.3303816 89.4974511,22.9171196 Z M82.5367317,22.9171196 C82.5367317,23.9851163 82.7389624,24.7893712 83.1434299,25.3299083 C83.5478973,25.8704454 84.1524148,26.1407099 84.9570006,26.1407099 C86.5705213,26.1407099 87.3772695,25.0661905 87.3772695,22.9171196 C87.3772695,20.7636894 86.5748703,19.6869905 84.9700479,19.6869905 C84.1654621,19.6869905 83.5587701,19.9583448 83.1499535,20.5010615 C82.7411369,21.0437782 82.5367317,21.8491228 82.5367317,22.9171196 Z M101.909321,18.1503906 L101.909321,24.3360224 C101.909321,25.042208 101.751668,25.6612009 101.436357,26.1930197 C101.121047,26.7248385 100.665484,27.1324148 100.069655,27.4157609 C99.4738271,27.6991069 98.7692815,27.8407779 97.9559975,27.8407779 C96.7295478,27.8407779 95.7771065,27.5258325 95.098645,26.8959324 C94.4201835,26.2660323 94.0809578,25.4040193 94.0809578,24.3098675 L94.0809578,18.1503906 L96.0967613,18.1503906 L96.0967613,24.0025476 C96.0967613,24.7392473 96.2446289,25.2797764 96.5403685,25.6241508 C96.8361081,25.9685253 97.3253759,26.1407099 98.0081866,26.1407099 C98.6692516,26.1407099 99.1487341,25.9674355 99.4466482,25.6208815 C99.7445624,25.2743274 99.8935173,24.7305291 99.8935173,23.9894701 L99.8935173,18.1503906 L101.909321,18.1503906 Z M112.409765,27.7100034 L106.916864,27.7100034 L106.916864,18.1503906 L112.409765,18.1503906 L112.409765,19.8112262 L108.939191,19.8112262 L108.939191,21.9101562 L112.168391,21.9101562 L112.168391,23.5709918 L108.939191,23.5709918 L108.939191,26.0360904 L112.409765,26.0360904 L112.409765,27.7100034 Z M122.701453,25.0552819 C122.701453,25.9183977 122.391583,26.598418 121.771835,27.0953635 C121.152086,27.5923089 120.289888,27.8407779 119.185213,27.8407779 C118.167521,27.8407779 117.267268,27.6489772 116.484428,27.2653702 L116.484428,25.3822181 C117.128097,25.6699233 117.672815,25.8726217 118.118599,25.9903193 C118.564383,26.1080169 118.972106,26.1668648 119.341781,26.1668648 C119.78539,26.1668648 120.125703,26.0818623 120.36273,25.9118546 C120.599756,25.741847 120.718268,25.4890189 120.718268,25.1533628 C120.718268,24.9659184 120.666079,24.7991827 120.561701,24.6531505 C120.457322,24.5071183 120.304018,24.3665371 120.101784,24.2314029 C119.899551,24.0962686 119.487478,23.8804929 118.865555,23.5840693 C118.282774,23.3094416 117.845695,23.0457157 117.554304,22.7928838 C117.262914,22.540052 117.03024,22.2458124 116.856275,21.9101562 C116.682311,21.5745001 116.59533,21.1821807 116.59533,20.7331861 C116.59533,19.8875071 116.88128,19.2227436 117.453188,18.7388757 C118.025096,18.2550078 118.815536,18.0130774 119.82453,18.0130774 C120.320329,18.0130774 120.793287,18.0719254 121.24342,18.189623 C121.693554,18.3073206 122.164338,18.4729665 122.655788,18.6865659 L122.003424,20.2623981 C121.494578,20.0531579 121.073808,19.9071279 120.741101,19.8243037 C120.408393,19.7414794 120.081128,19.7000679 119.759293,19.7000679 C119.376571,19.7000679 119.083011,19.7894296 118.878603,19.9681556 C118.674194,20.1468816 118.571992,20.3800937 118.571992,20.6677989 C118.571992,20.8465249 118.613308,21.0023629 118.695941,21.1353176 C118.778574,21.2682723 118.910133,21.3968659 119.090621,21.5211022 C119.271109,21.6453386 119.698403,21.8687427 120.372515,22.1913213 C121.264083,22.61852 121.875124,23.0468021 122.205657,23.4761804 C122.536189,23.9055586 122.701453,24.4319206 122.701453,25.0552819 Z M130.781629,27.7100034 L128.759301,27.7100034 L128.759301,19.8373811 L126.169418,19.8373811 L126.169418,18.1503906 L133.371512,18.1503906 L133.371512,19.8373811 L130.781629,19.8373811 L130.781629,27.7100034 Z M137.511411,27.7100034 L137.511411,18.1503906 L139.533739,18.1503906 L139.533739,27.7100034 L137.511411,27.7100034 Z M153.263383,22.9171196 C153.263383,24.4994984 152.871968,25.7156887 152.089128,26.5657269 C151.306288,27.4157651 150.184234,27.8407779 148.722932,27.8407779 C147.26163,27.8407779 146.139576,27.4157651 145.356736,26.5657269 C144.573896,25.7156887 144.182482,24.4951393 144.182482,22.9040421 C144.182482,21.3129449 144.574983,20.0978444 145.359998,19.2587041 C146.145013,18.4195639 147.270329,18 148.735979,18 C150.20163,18 151.322597,18.4228332 152.098914,19.2685122 C152.87523,20.1141913 153.263383,21.3303816 153.263383,22.9171196 Z M146.302663,22.9171196 C146.302663,23.9851163 146.504894,24.7893712 146.909361,25.3299083 C147.313829,25.8704454 147.918346,26.1407099 148.722932,26.1407099 C150.336453,26.1407099 151.143201,25.0661905 151.143201,22.9171196 C151.143201,20.7636894 150.340802,19.6869905 148.735979,19.6869905 C147.931394,19.6869905 147.324702,19.9583448 146.915885,20.5010615 C146.507068,21.0437782 146.302663,21.8491228 146.302663,22.9171196 Z M166.373281,27.7100034 L163.802969,27.7100034 L159.653936,20.478176 L159.595224,20.478176 C159.677857,21.7554129 159.719173,22.6664658 159.719173,23.2113621 L159.719173,27.7100034 L157.912126,27.7100034 L157.912126,18.1503906 L160.462867,18.1503906 L164.605376,25.3102921 L164.651041,25.3102921 C164.585805,24.0679286 164.553187,23.1895689 164.553187,22.6751868 L164.553187,18.1503906 L166.373281,18.1503906 L166.373281,27.7100034 Z" fill="#FFFFFF"/></g></svg>