<svg xmlns="http://www.w3.org/2000/svg" width="124" height="131" viewBox="0 0 124 131"><g fill="none" fill-rule="evenodd" transform="translate(3 3)"><path fill="#CCC" d="M97.262 24.228H31.865v93.019l1.78 1.79 10.567-10.52a3.484 3.484 0 0 1 4.88 0l10.6 10.52 10.567-10.52a3.484 3.484 0 0 1 4.88 0l10.567 10.52 10.566-10.52a3.484 3.484 0 0 1 4.88 0l10.55 10.52 1.796-1.79V40.384L97.262 24.228zm-68.827-6.872h70.26a3.48 3.48 0 0 1 2.457 1.02l18.233 18.152a3.45 3.45 0 0 1 1.016 2.438v79.698a3.45 3.45 0 0 1-1.024 2.447l-5.21 5.186a3.484 3.484 0 0 1-4.88 0l-10.592-10.494-10.567 10.52a3.484 3.484 0 0 1-4.88 0l-10.532-10.52-10.6 10.52a3.484 3.484 0 0 1-4.88 0l-10.567-10.52-10.567 10.52a3.484 3.484 0 0 1-4.88 0l-5.209-5.186a3.45 3.45 0 0 1-1.05-2.473v-97.85a3.465 3.465 0 0 1 3.472-3.458z"/><path fill="#FFF" d="M98.504 20.61l18.25 18.179v79.698l-5.244 5.23-13.006-12.95-13.007 12.95-13.006-12.95-13.007 12.95-13.006-12.95-13.007 12.95-5.253-5.23V20.61z"/><path fill="#333" fill-rule="nonzero" d="M62.492 74.855c-.358.116-.888-.525-1.183-1.433-.295-.908-.244-1.739.114-1.855L80.77 65.28c.359-.117.888.525 1.183 1.433.295.908.244 1.739-.114 1.855l-19.347 6.286z"/><path fill="#CCC" d="M95.248 38.966V20.814a3.458 3.458 0 0 1 2.143-3.138 3.485 3.485 0 0 1 3.744.709l18.233 18.152a3.446 3.446 0 0 1 .733 3.733 3.473 3.473 0 0 1-3.156 2.145H98.712a3.465 3.465 0 0 1-3.473-3.458l.009.01zm6.894-9.889v6.431h6.477l-6.477-6.43z"/><path fill="#F2F2F2" d="M98.695 20.788v18.178h18.25zM59.484 117.084l-13.006-12.948-13.007 12.948-5.253-5.23v6.44l5.253 5.23 13.007-12.949 13.006 12.95 13.007-12.95 13.006 12.95 13.007-12.95 13.006 12.95 5.244-5.23v-6.44l-5.244 5.23-13.006-12.95-13.007 12.95-13.006-12.95z"/><ellipse cx="24.607" cy="24.594" fill="#F9F9F9" stroke="#CCC" stroke-width="6" rx="24.607" ry="24.594"/><path d="M23.821 28.064v-2.305c3.69 0 6.917-3.226 6.917-6.913 0-3.688-3.228-6.914-6.917-6.914-2.767 0-5.303 2.074-6.456 4.379M23.877 34.977v2.305" stroke="#4A148C" stroke-linecap="round" stroke-linejoin="round" stroke-width="5"/><g transform="translate(49.925 41.22)"><g fill="#333"><path fill-rule="nonzero" d="M32.153 14.305v-3.303l14.045-.155c.26 0 .47.774.47 1.73 0 .954-.21 1.728-.47 1.728H32.153z"/><path d="M37.619 0a5.52 5.52 0 0 1 5.52 5.52v7.786h-11.04V5.52A5.52 5.52 0 0 1 37.618 0z"/></g><ellipse cx="7.597" cy="7.593" stroke="#333" stroke-width="6" rx="7.597" ry="7.593"/><ellipse cx="7.597" cy="7.593" fill="#333" rx="3.256" ry="3.254"/></g></g></svg>