<svg xmlns="http://www.w3.org/2000/svg" width="148" height="44" viewBox="0 0 148 44"><g fill="#FFF"><path d="M143.2 43.5H4.7c-2.6 0-4.7-2.1-4.7-4.7V5.2C0 2.6 2.1.5 4.7.5h138.5c2.6 0 4.7 2.1 4.7 4.7v33.6c.1 2.6-2 4.7-4.7 4.7zM4.7 1.5C2.6 1.5 1 3.2 1 5.2v33.6c0 2 1.7 3.7 3.7 3.7h138.5c2.1 0 3.7-1.7 3.7-3.7V5.2c0-2.1-1.7-3.7-3.7-3.7H4.7z"/><path d="M96.6 31.5c-.7.3-1.4.6-2.3.6-1.9 0-3.6-1.5-4.1-4l1.5-.1 4.7-1.9c-.1-.5-.4-1.3-1.4-2-.6-.4-1.3-.6-2.1-.6-2.1 0-4.6 1.5-4.6 4.6 0 1.5.6 3.2 2.1 4.2 1 .7 2 .8 2.7.8.6 0 1.3-.1 2-.4.2-.1.4-.2.7-.4l.8-.8c.2-.1 0 0 0 0zM90.1 27c0-2.2 1.5-2.8 2.3-2.8 1.1 0 2 .9 2 1.7 0 .3-.2.4-.6.5L90.1 28v-1z"/><path d="M86.8 31.4V20.1c.1-.7.3-.9.9-1.3h-2.9l-1.5.7h1.6v12.3c0 .4-.1.5-.5 1.1h3.5l.7-.4c-.3 0-.7-.1-1-.1-.7-.1-.8-.3-.8-1z"/><path d="M83.8 23.8h-4.1c-1.1 0-2.5.2-3.6 1.1-.9.7-1.3 1.8-1.3 2.7 0 1.6 1.2 3.1 3.3 3.1h.6c-.1.2-.2.4-.2.8 0 .6.3 1 .6 1.4-.9.1-2.6.2-3.8.9-1.2.7-1.6 1.7-1.6 2.4 0 1.5 1.4 2.9 4.3 2.9 3.5 0 5.3-1.9 5.3-3.8 0-1.4-.8-2.1-1.7-2.8l-.7-.6c-.2-.2-.5-.4-.5-.9 0-.4.3-.7.6-1 .8-.7 1.7-1.4 1.7-2.8 0-1.5-1-2.3-1.4-2.7h1.2l1.3-.7zM82 36c0 1.2-1 2.2-3 2.2-2.2 0-3.5-1-3.5-2.4s1.3-1.9 1.7-2.1c.8-.3 1.9-.3 2.1-.3h.5C81.4 34.5 82 35 82 36zm-1.6-6.4c-.3.3-.9.6-1.4.6-1.7 0-2.5-2.2-2.5-3.5 0-.5.1-1.1.4-1.5.3-.4.9-.7 1.4-.7 1.7 0 2.5 2.2 2.5 3.7.1.3.1 1-.4 1.4zM69.1 23.6c-3.1 0-5.2 2.2-5.2 4.8 0 2.2 1.7 4.7 4.9 4.7 3.3 0 5.1-2.5 5.1-4.8 0-2.4-1.8-4.7-4.8-4.7zm2.1 7.9c-.5.6-1.3 1-2.1 1-2.4 0-3.4-3.2-3.4-5.2 0-.9.1-1.7.9-2.4.5-.4 1.2-.7 1.8-.7 2.5 0 3.3 3.3 3.3 5.1.2.8.1 1.6-.5 2.2zM58.4 23.6c-3.1 0-5.2 2.2-5.2 4.8 0 2.2 1.7 4.7 4.9 4.7 3.3 0 5.1-2.5 5.1-4.8 0-2.4-1.8-4.7-4.8-4.7zm2.2 7.9c-.5.6-1.3 1-2.1 1-2.4 0-3.4-3.2-3.4-5.2 0-.9.1-1.7.9-2.4.5-.4 1.1-.7 1.8-.7 2.5 0 3.3 3.3 3.3 5.1.1.8 0 1.6-.5 2.2zM47.1 29.3l2.8-.2v3c-.6.2-1.2.5-2.4.5-4.1 0-6.7-3.3-6.7-6.8 0-3.3 2.2-5.5 5.2-5.5 2.2 0 3.4 1.1 4 1.8l-.5.7.7-.1 1.6-1.5c-.4-.3-1.1-.8-2.5-1.2-.9-.2-1.9-.4-2.9-.4-4.8 0-7.6 3.4-7.6 7 0 3 2 6.8 7.2 6.8 1 0 2-.2 3.1-.3l2.7-.6v-2.3-.9c0-.1.1-.2.2-.3l.5-.5h-4l-1.4.8zM105.7 23.5c-1.4 0-2.6.8-3.3 1.7v-1.5h-1v12.9h1v-5.1c.8 1.1 2 1.7 3.3 1.7 2.5 0 4.2-1.9 4.2-4.9.1-2.9-1.7-4.8-4.2-4.8zm-.1 8.9c-1.3 0-2.6-1.1-3.1-2v-4.1c.5-.9 1.8-1.9 3.1-1.9 2.1 0 3.3 1.7 3.3 4s-1.2 4-3.3 4zM111.4 20.2h1v12.9h-1zM127.4 31.9l-3.4-8.2h-1.1l4 9.4-.7 1.7c-.4.9-.8 1.1-1.4 1.1-.2 0-.6-.1-.8-.2l-.2.9c.3.1.7.1 1 .1 1.1 0 1.9-.6 2.4-1.7l4.9-11.4h-1.2l-3.5 8.3zM121.7 31.2v-4.6c0-1-.3-1.7-1-2.3-.7-.5-1.6-.8-2.7-.8s-2 .3-2.7.8c-.7.5-1 1.2-1 1.9v.1h1c0-.5.2-1 .7-1.3.5-.3 1.1-.5 1.9-.5.8 0 1.5.2 1.9.6.5.4.7.9.7 1.6v1.2h-2.4c-1.3 0-2.3.3-3.1.8-.8.5-1.2 1.2-1.2 2s.3 1.5.8 2 1.3.7 2.3.7c.8 0 1.4-.2 2.1-.5.6-.3 1.1-.8 1.5-1.3v.7c0 .2.1.5.2.8h1.2c-.1-.3-.2-.6-.2-.9.1-.3 0-.7 0-1zm-1.1-.9c-.2.6-.7 1.1-1.3 1.5-.6.4-1.3.6-2.1.6-.7 0-1.2-.2-1.6-.5-.4-.3-.6-.8-.6-1.3 0-.6.3-1.1.9-1.5.6-.4 1.3-.6 2.3-.6h2.4v1.8zM41.8 10.3h1.9v1c-.3.3-.9.6-1.5.6-1.3 0-2.2-1-2.2-2.3 0-1.3.9-2.3 2.2-2.3.7 0 1.3.4 1.7.8l.9-.5c-.5-.7-1.3-1.3-2.6-1.3-1.9 0-3.3 1.3-3.3 3.3 0 2 1.5 3.3 3.3 3.3 1.1 0 2-.5 2.6-1.2V9.3h-3v1zM46.2 12.7h4.4v-.9h-3.4V10h3.3V9h-3.3V7.4h3.4v-1h-4.4zM51.8 7.4h1.9v5.3h1.1V7.4h1.9v-1h-4.9zM60.6 6.4h1.1v6.3h-1.1zM62.9 7.4h1.9v5.3h1.1V7.4h2v-1h-5zM74.7 6.3c-1.9 0-3.3 1.4-3.3 3.3s1.3 3.3 3.3 3.3c1.9 0 3.3-1.4 3.3-3.3s-1.4-3.3-3.3-3.3zm0 5.6c-1.3 0-2.1-1-2.1-2.3 0-1.3.8-2.3 2.1-2.3s2.1 1 2.1 2.3c0 1.3-.8 2.3-2.1 2.3zM83.7 10.8l-3.3-4.4h-1.2v6.3h1.2V8.2l3.3 4.5h1.1V6.4h-1.1zM27 30.9l-2.8-3.1-8.2 9.3zM16.2 17.4l8 9.2 2.9-3zM32.1 26.4L27.8 24l-3 3.3 2.8 3.2L32 28c.8-.4.8-1.2.1-1.6zM14.1 17.9v18.5c0 .6.2.9.6 1l9.1-10.2-9.1-10.3c-.5.2-.6.5-.6 1z"/></g></svg>