<svg xmlns="http://www.w3.org/2000/svg" width="112" height="29" viewBox="0 0 112 29"><g fill="none" fill-rule="evenodd"><path fill="#FEFEFE" d="M15.12 26.58H2.71a1.7 1.7 0 0 1-1.71-1.69v-2.702c0-.933.766-1.69 1.71-1.69H15.12a1.49 1.49 0 0 0 1.086-.447c.302-.298.453-.656.453-1.073 0-.432-.151-.715-.453-.85-.301-.134-.663-.2-1.086-.2H8.693a7.527 7.527 0 0 1-3.01-.605A7.757 7.757 0 0 1 3.24 15.68a7.736 7.736 0 0 1-1.64-2.425A7.41 7.41 0 0 1 1 10.28c0-1.058.2-2.05.6-2.974.4-.924.946-1.728 1.64-2.414a7.697 7.697 0 0 1 2.444-1.62 7.651 7.651 0 0 1 3.01-.593h10.801a1.7 1.7 0 0 1 1.71 1.69v2.7a1.7 1.7 0 0 1-1.71 1.69H8.693c-.422 0-.784.15-1.086.448a1.456 1.456 0 0 0-.453 1.073c0 .432.151.801.453 1.107.302.305.664.458 1.086.458h6.426c1.056 0 2.052.175 2.987.526.935.35 1.75.838 2.444 1.464a6.927 6.927 0 0 1 1.652 2.258c.407.88.61 1.84.61 2.884a7.214 7.214 0 0 1-.61 2.962 7.937 7.937 0 0 1-1.652 2.415 7.61 7.61 0 0 1-2.444 1.632 7.6 7.6 0 0 1-2.987.592zm40.604-8.933c0 1.23-.232 2.389-.696 3.479a8.914 8.914 0 0 1-1.901 2.842 9.036 9.036 0 0 1-2.826 1.91 8.616 8.616 0 0 1-3.466.701 8.811 8.811 0 0 1-3.173-.581 8.743 8.743 0 0 1-2.76-1.701 8.524 8.524 0 0 1-2.728 1.7 8.784 8.784 0 0 1-3.183.582 8.537 8.537 0 0 1-3.456-.702 9.068 9.068 0 0 1-2.814-1.91 8.91 8.91 0 0 1-1.902-2.841 8.792 8.792 0 0 1-.695-3.479V4.37c0-.933.766-1.69 1.71-1.69h2.512a1.7 1.7 0 0 1 1.71 1.69v13.277c0 .41.077.794.229 1.152a2.98 2.98 0 0 0 1.565 1.58c.355.154.735.231 1.14.231.406 0 .79-.077 1.152-.23.363-.154.681-.366.957-.637a2.899 2.899 0 0 0 .869-2.096V4.37c0-.933.767-1.69 1.71-1.69h2.49a1.7 1.7 0 0 1 1.711 1.69v13.277c0 .41.08.794.24 1.152.159.359.373.674.64.944.269.27.58.483.935.636.355.154.735.231 1.141.231s.79-.077 1.152-.23c.362-.154.677-.366.945-.637.268-.27.482-.585.641-.944a2.8 2.8 0 0 0 .24-1.152V4.37c0-.933.766-1.69 1.71-1.69h2.49a1.7 1.7 0 0 1 1.71 1.69v13.277z"/><path fill="#FFF" d="M71.017 27.1c-4.372 0-8.673-2.425-10.985-6.31-1.157-1.926-1.735-3.994-1.735-6.204 0-4.42 2.457-8.556 6.432-10.838 1.988-1.105 4.084-1.675 6.288-1.675 4.445 0 8.71 2.424 10.986 6.31 1.12 1.96 1.698 4.028 1.698 6.203 0 4.278-2.457 8.556-6.36 10.802-1.987 1.14-4.083 1.711-6.324 1.711zm-.035-19.601c-2.644 0-4.99 1.353-6.278 3.54a7.002 7.002 0 0 0-.965 3.587c0 2.594 1.38 4.894 3.61 6.157a7.209 7.209 0 0 0 3.633.948c2.645 0 5.013-1.354 6.301-3.541a6.863 6.863 0 0 0 .966-3.564c0-2.594-1.357-4.917-3.633-6.18a7.333 7.333 0 0 0-3.634-.947zM97.784 27.1c-4.372 0-8.673-2.425-10.985-6.31-1.157-1.926-1.735-3.994-1.735-6.204 0-4.42 2.457-8.556 6.432-10.838 1.988-1.105 4.084-1.675 6.288-1.675 4.445 0 8.71 2.424 10.986 6.31 1.12 1.96 1.698 4.028 1.698 6.203 0 4.278-2.457 8.556-6.36 10.802-1.987 1.14-4.083 1.711-6.324 1.711zM97.75 7.498c-2.644 0-4.99 1.353-6.278 3.54a7.002 7.002 0 0 0-.966 3.587c0 2.594 1.38 4.894 3.61 6.157a7.209 7.209 0 0 0 3.634.948c2.645 0 5.013-1.354 6.301-3.541a6.863 6.863 0 0 0 .966-3.564c0-2.594-1.357-4.917-3.633-6.18a7.333 7.333 0 0 0-3.634-.947z"/></g></svg>