<svg xmlns="http://www.w3.org/2000/svg" width="72" height="41" viewBox="0 0 72 41"><path fill="#FFF" d="M12.623 5.784c.024-.03-6.578 12.072-6.834 14.015a14.86 14.86 0 0 0 .408 5.666c.515 1.775 1.356 3.466 2.55 5.07 1.155 1.517 2.651 2.809 4.488 3.876 1.775.962 3.627 1.553 5.508 1.69 1.943.21 3.778.024 5.508-.497 1.787-.573 3.428-1.453 4.998-2.684a15.694 15.694 0 0 0 3.775-4.473l5.61-7.853c.46-.728 1.078-1.181 1.938-1.391.784-.201 1.566-.095 2.346.298.68.427 1.147 1.023 1.326 1.79.251.81.151 1.554-.306 2.285L36.9 34.113c-.722 1.129-.223 2.024 1.122 1.988h10.404c.65.036 1.61-.317 2.142-.795-.026.041 15.607-13.345 15.607-15.209C66.175 18.31 51.444 7.6 49.65 6.58c-1.843-1.023-3.743-1.648-5.712-1.889-1.994-.218-3.921-.091-5.814.398-1.855.474-3.239 1.297-4.896 2.485C31.66 8.71 30.4 10.18 29.35 11.946L22.62 22.582c-.442.736-.914 1.272-1.428 1.69-.54.324-1.175.301-1.938-.1-.697-.42-1.164-1.015-1.428-1.789a3.37 3.37 0 0 1 .306-2.286l7.854-13.32c.717-1.15.166-2.075-1.224-2.087H14.46c-.694.012-1.497.483-1.836 1.094zm17.34-.2c.077.925-.157 1.956-.714 2.983l-7.854 13.32c-.012-.015.019-.102 0-.2.046-.104.04-.19 0-.198.014-.087-.025-.166-.102-.199-.055-.135-.13-.198-.204-.199a2.015 2.015 0 0 0-.612-.199c-.54.005-1.054.158-1.428.398 0 .024.038-.01.102-.1.07-.064.163-.193.306-.397l6.732-10.735 3.162 1.888-3.162-1.789c1.074-1.828 2.316-3.345 3.774-4.572.371-.345.74-.636 1.122-.895 2.197-1.602 3.903-2.499 6.12-3.081 2.324-.586 4.717-.743 7.14-.497a19.495 19.495 0 0 1 7.141 2.385c1.226.685 5.685 3.89 9.384 6.76a152.92 152.92 0 0 1 5.509 4.473c.797.794 1.463 1.453 1.938 1.988.358.428.63.789.816 1.192.452.65.714 1.341.714 2.187 0 .867-.227 1.505-.612 2.187-.174.327-.412.677-.714 1.094a41.804 41.804 0 0 1-1.734 1.988c-1.304 1.339-2.997 2.974-4.999 4.87-.33.26-.62.526-.918.795-1.729 1.586-3.58 3.236-5.406 4.871a46.762 46.762 0 0 0-1.836 1.59c-.165.116-.334.261-.51.398a.476.476 0 0 1-.102.1c-1.223 1.054-3.044 1.726-4.59 1.69H38.022c-3.348.036-5.457-2.464-5.1-5.269.13-.705.418-1.473.918-2.187l7.038-10.636 3.06 1.988-3.162-1.789c-.005.022-.036.108 0 .199-.063.113-.057.198 0 .199-.03.094.008.173.102.298.038.044.113.107.204.1.054.072.1.083.102.099.139.003.22-.002.306 0 .004-.025.084-.061.204-.1.06-.093.129-.17.204-.199l-.102.1-5.712 8.051-3.06-2.087 3.162 1.79c.01.087-.016.131 0 .198-.95 1.483-2.016 2.833-3.264 3.976-.426.483-.9.901-1.429 1.292a17.985 17.985 0 0 1-6.12 3.28c-2.21.698-4.542.935-6.936.696-2.454-.2-4.814-.954-7.038-2.187-2.272-1.294-4.154-2.918-5.61-4.87a19.254 19.254 0 0 1-3.162-6.262 19.022 19.022 0 0 1-.51-6.959c.216-1.446 1.3-3.822 3.468-8.051.117-.262.233-.49.306-.696.805-1.503 1.616-3.047 2.448-4.572.263-.524.527-1.015.714-1.491.133-.116.207-.252.306-.398.037-.105.04-.11 0-.1.994-1.767 3.045-2.97 5.1-2.981h10.302c3.024.011 5.061 2.007 5.202 4.473z"/></svg>