<svg xmlns="http://www.w3.org/2000/svg" width="123" height="130" viewBox="0 0 123 130"><g fill="none" fill-rule="evenodd" transform="translate(3 3)"><path fill="#CCC" d="M96.882 24.146H31.741v92.705l1.773 1.783 10.525-10.484a3.47 3.47 0 0 1 4.86 0l10.56 10.484 10.526-10.484a3.47 3.47 0 0 1 4.86 0l10.526 10.484 10.525-10.484a3.47 3.47 0 0 1 4.86 0l10.509 10.484 1.79-1.783V40.247l-16.173-16.1zm-68.558-6.849H98.31c.92.002 1.8.368 2.448 1.017l18.162 18.091a3.44 3.44 0 0 1 1.012 2.43v79.429a3.44 3.44 0 0 1-1.02 2.438l-5.19 5.168a3.47 3.47 0 0 1-4.86 0l-10.552-10.458-10.525 10.484a3.47 3.47 0 0 1-4.86 0l-10.492-10.484-10.56 10.484a3.47 3.47 0 0 1-4.86 0l-10.526-10.484-10.525 10.484a3.47 3.47 0 0 1-4.86 0l-5.19-5.169a3.44 3.44 0 0 1-1.046-2.463v-97.52a3.453 3.453 0 0 1 3.46-3.447z"/><path fill="#FFF" d="M28.108 20.54h70.01l18.18 18.118v79.429l-5.223 5.212-12.956-12.905-12.956 12.905-12.955-12.905-12.956 12.905-12.956-12.905-12.955 12.905-5.233-5.212z"/><path fill="#333" fill-rule="nonzero" d="M50.273 71.554c-.3 0-.543-.771-.543-1.723 0-.951.243-1.723.543-1.723h16.21c.3 0 .544.772.544 1.723 0 .952-.243 1.723-.543 1.723h-16.21z"/><path fill="#CCC" d="M94.876 38.834v-18.09a3.446 3.446 0 0 1 2.134-3.128 3.47 3.47 0 0 1 3.73.706l18.162 18.092a3.436 3.436 0 0 1 .73 3.72 3.46 3.46 0 0 1-3.143 2.138H98.326a3.453 3.453 0 0 1-3.459-3.446l.009.008zm6.867-9.855v6.41h6.452l-6.452-6.41z"/><path fill="#F2F2F2" d="M98.31 20.717v18.117h18.179zM59.252 116.689l-12.956-12.905-12.955 12.905-5.233-5.212v6.418l5.233 5.212 12.955-12.905 12.956 12.905 12.956-12.905 12.955 12.905 12.956-12.905 12.956 12.905 5.223-5.212v-6.418l-5.223 5.212-12.956-12.905-12.956 12.905-12.955-12.905z"/><circle cx="24.511" cy="24.511" r="24.511" fill="#F9F9F9" stroke="#CCC" stroke-width="4.5"/><path d="M11.892 11.892h26v26h-26z"/><path fill="#C9203B" d="M24.892 31.392a2.167 2.167 0 1 1-.002 4.335 2.167 2.167 0 0 1 .002-4.335"/><path fill="#CA2B4E" d="M23.448 14.059h2.889v14.444h-2.89z"/><g transform="translate(49.73 41.081)"><circle cx="37.838" cy="7.568" r="7.568" stroke="#333" stroke-width="4.5"/><circle cx="7.568" cy="7.568" r="7.568" stroke="#333" stroke-width="4.5"/><circle cx="7.027" cy="3.784" r="3.784" fill="#333"/><circle cx="37.297" cy="3.784" r="3.784" fill="#333"/></g></g></svg>