<svg xmlns="http://www.w3.org/2000/svg" xmlns:xlink="http://www.w3.org/1999/xlink" width="48" height="48" viewBox="0 0 48 48"><defs><circle id="a" cx="23" cy="23" r="23"/></defs><g fill="none" fill-rule="evenodd" transform="translate(1 1)"><mask id="b" fill="#fff"><use xlink:href="#a"/></mask><use fill="#333" stroke="#333" stroke-width="2" xlink:href="#a"/><path fill="#FFF" fill-rule="nonzero" d="M29.506 31.698c3.43-2.088 5.667-5.816 5.667-10.14 0-6.562-5.368-11.93-11.93-11.93-6.56 0-11.93 5.368-11.93 11.93 0 4.324 2.237 8.052 5.667 10.14-5.965 2.237-10.438 7.456-11.631 13.719H8.33c1.491-6.86 7.605-11.93 14.912-11.93s13.421 5.07 14.912 11.93h2.983c-1.193-6.412-5.667-11.631-11.632-13.72zm-15.21-10.14c0-4.921 4.026-8.948 8.947-8.948 4.921 0 8.948 4.027 8.948 8.948 0 4.92-4.027 8.947-8.948 8.947-4.92 0-8.947-4.026-8.947-8.947z" mask="url(#b)"/></g></svg>